<svg width="168" height="27" viewBox="0 0 168 27" fill="none" xmlns="http://www.w3.org/2000/svg">
<g clip-path="url(#clip0_1_100)">
<g filter="url(#filter0_d_1_100)">
<path d="M31.4988 1.94103C31.5852 1.94103 31.6553 1.86815 31.6553 1.77825C31.6553 1.68836 31.5852 1.61548 31.4988 1.61548C31.4124 1.61548 31.3423 1.68836 31.3423 1.77825C31.3423 1.86815 31.4124 1.94103 31.4988 1.94103Z" fill="url(#paint0_linear_1_100)"/>
</g>
<g filter="url(#filter1_d_1_100)">
<path d="M5.68436 6.03804C5.90861 6.03804 6.09039 5.84898 6.09039 5.61576C6.09039 5.38254 5.90861 5.19348 5.68436 5.19348C5.46011 5.19348 5.27832 5.38254 5.27832 5.61576C5.27832 5.84898 5.46011 6.03804 5.68436 6.03804Z" fill="url(#paint1_linear_1_100)"/>
</g>
<g filter="url(#filter2_d_1_100)">
<path d="M1.50223 18.4063C1.72648 18.4063 1.90827 18.2173 1.90827 17.984C1.90827 17.7508 1.72648 17.5618 1.50223 17.5618C1.27798 17.5618 1.09619 17.7508 1.09619 17.984C1.09619 18.2173 1.27798 18.4063 1.50223 18.4063Z" fill="url(#paint2_linear_1_100)"/>
</g>
<g filter="url(#filter3_d_1_100)">
<path d="M25.5428 21.8016C25.767 21.8016 25.9488 21.6125 25.9488 21.3793C25.9488 21.1461 25.767 20.957 25.5428 20.957C25.3185 20.957 25.1367 21.1461 25.1367 21.3793C25.1367 21.6125 25.3185 21.8016 25.5428 21.8016Z" fill="url(#paint3_linear_1_100)"/>
</g>
<g filter="url(#filter4_d_1_100)">
<path d="M6.52761 14.6515C6.61405 14.6515 6.68412 14.5786 6.68412 14.4887C6.68412 14.3988 6.61405 14.3259 6.52761 14.3259C6.44117 14.3259 6.37109 14.3988 6.37109 14.4887C6.37109 14.5786 6.44117 14.6515 6.52761 14.6515Z" fill="url(#paint4_linear_1_100)"/>
</g>
<g filter="url(#filter5_d_1_100)">
<path d="M12.5243 1.51158C12.6601 1.51158 12.7702 1.39706 12.7702 1.25579C12.7702 1.11452 12.6601 1 12.5243 1C12.3884 1 12.2783 1.11452 12.2783 1.25579C12.2783 1.39706 12.3884 1.51158 12.5243 1.51158Z" fill="url(#paint5_linear_1_100)"/>
</g>
<g filter="url(#filter6_d_1_100)">
<path d="M3.22758 12.9061C3.14757 12.9187 3.07313 12.8679 3.04946 12.783C2.82758 12.0289 2.71089 11.9374 1.98526 11.965C1.90152 11.9675 1.8278 11.906 1.81574 11.8228C1.80352 11.7385 1.85569 11.6595 1.93609 11.6339C2.63013 11.4199 2.70486 11.3161 2.72206 10.5257C2.72411 10.438 2.77857 10.3669 2.85747 10.3545C2.93859 10.3417 3.01192 10.3929 3.03781 10.4773C3.2573 11.2306 3.37399 11.3221 4.09851 11.2946C4.18464 11.2929 4.25691 11.3525 4.26931 11.4379C4.28137 11.521 4.23141 11.5997 4.1488 11.6257C3.45397 11.8421 3.38019 11.9446 3.36521 12.7346C3.36111 12.8239 3.30537 12.894 3.22758 12.9061Z" fill="url(#paint6_linear_1_100)"/>
</g>
<path d="M16.6299 6.19353C16.4189 6.27642 16.2783 6.48608 16.2783 6.72008C16.2783 6.95408 16.4189 7.16364 16.6299 7.24653C18.3127 7.90318 19.6406 9.2842 20.2721 11.0344C20.3517 11.2537 20.5533 11.4001 20.7783 11.4001C21.0033 11.4001 21.2049 11.2537 21.2845 11.0344C21.916 9.2842 23.2439 7.90318 24.9267 7.24653C25.1377 7.16364 25.2783 6.95408 25.2783 6.72008C25.2783 6.48608 25.1377 6.27642 24.9267 6.19353C23.2439 5.53688 21.916 4.15583 21.2845 2.40566C21.2049 2.18629 21.0033 2.04004 20.7783 2.04004C20.5533 2.04004 20.3517 2.18629 20.2721 2.40566C19.6406 4.15583 18.3127 5.53688 16.6299 6.19353ZM10.8924 5.61342C10.7705 5.33553 10.5033 5.16008 10.2127 5.16008C9.92212 5.16008 9.65492 5.33553 9.53302 5.61342C7.93573 9.20006 5.16408 12.0815 1.71426 13.7401C1.44707 13.8667 1.27832 14.1446 1.27832 14.4517C1.27832 14.7589 1.44707 15.0318 1.71426 15.1586C5.16287 16.8151 7.93683 19.698 9.52832 23.2853C9.65022 23.5632 9.91742 23.7386 10.208 23.7386C10.4986 23.7386 10.7658 23.5632 10.8877 23.2853C12.4822 19.6948 15.254 16.8121 18.7064 15.1537C18.9736 15.0271 19.1424 14.7492 19.1424 14.4469C19.1424 14.1446 18.9736 13.8667 18.7064 13.7401C15.2572 12.0849 12.4852 9.19996 10.8924 5.61342ZM20.2721 18.0056C19.6406 19.7558 18.3127 21.1368 16.6299 21.7935C16.4189 21.8764 16.2783 22.0861 16.2783 22.3201C16.2783 22.5541 16.4189 22.7636 16.6299 22.8465C18.3127 23.5032 19.6406 24.8842 20.2721 26.6344C20.3517 26.8537 20.5533 27 20.7783 27C21.0033 27 21.2049 26.8537 21.2845 26.6344C21.916 24.8842 23.2439 23.5032 24.9267 22.8465C25.1377 22.7636 25.2783 22.5541 25.2783 22.3201C25.2783 22.0861 25.1377 21.8764 24.9267 21.7935C23.2439 21.1368 21.916 19.7558 21.2845 18.0056C21.2049 17.7863 21.0033 17.6401 20.7783 17.6401C20.5533 17.6401 20.3517 17.7863 20.2721 18.0056Z" fill="url(#paint7_linear_1_100)"/>
<path d="M12.9717 16.0857C5.80757 18.6733 0.343108 21.7987 0.766468 23.0665C1.18983 24.3342 7.34069 23.2643 14.5048 20.6767C21.6689 18.0891 27.1334 14.9637 26.71 13.696C26.2866 12.4282 20.1358 13.4981 12.9717 16.0857Z" stroke="url(#paint8_linear_1_100)" stroke-width="0.549291"/>
<g style="mix-blend-mode:screen" filter="url(#filter7_f_1_100)">
<path d="M12.9717 16.0855C5.80757 18.6731 0.343108 21.7985 0.766468 23.0662C1.18983 24.334 7.34069 23.2641 14.5048 20.6765C21.6689 18.0889 27.1334 14.9635 26.71 13.6957C26.2866 12.4279 20.1358 13.4979 12.9717 16.0855Z" stroke="url(#paint9_linear_1_100)" stroke-width="0.549291"/>
</g>
<g filter="url(#filter8_d_1_100)">
<path d="M23.872 7.36177C23.7616 7.34534 23.6827 7.24737 23.6838 7.12559C23.6787 6.03816 23.5595 5.86916 22.5907 5.60594C22.4792 5.57474 22.4053 5.46284 22.4211 5.34812C22.4372 5.23175 22.5363 5.14897 22.6522 5.14834C23.6504 5.15229 23.7888 5.046 24.1132 4.0094C24.1494 3.89443 24.2485 3.82298 24.3574 3.8392C24.4694 3.85589 24.5467 3.95363 24.5486 4.07593C24.551 5.16124 24.6701 5.33034 25.6374 5.59325C25.7518 5.62653 25.8245 5.735 25.8083 5.85294C25.7925 5.96765 25.6964 6.05096 25.5774 6.05116C24.5772 6.05012 24.4406 6.15496 24.1193 7.19204C24.0798 7.30821 23.9794 7.37778 23.872 7.36177Z" fill="url(#paint10_linear_1_100)"/>
</g>
<path d="M35.444 23V5.32H41.268C43.1227 5.32 44.5093 5.788 45.428 6.724C46.364 7.66 46.832 8.908 46.832 10.468V11.846C46.832 13.406 46.364 14.6627 45.428 15.616C44.5093 16.552 43.1227 17.02 41.268 17.02H38.564V23H35.444ZM41.268 8.31H38.564V14.03H41.268C42.0307 14.03 42.6113 13.8393 43.01 13.458C43.426 13.0767 43.634 12.5393 43.634 11.846V10.468C43.634 9.792 43.426 9.26333 43.01 8.882C42.6113 8.50067 42.0307 8.31 41.268 8.31ZM60.0977 23V15.538H53.4937V23H50.3737V5.32H53.4937V12.548H60.0977V5.32H63.2177V23H60.0977ZM80.6023 12.288V16.006C80.6023 18.2593 80.039 20.036 78.9123 21.336C77.7857 22.6187 76.139 23.26 73.9723 23.26C71.7883 23.26 70.133 22.6187 69.0063 21.336C67.897 20.036 67.3423 18.2593 67.3423 16.006V12.288C67.3423 10.0347 67.897 8.26667 69.0063 6.984C70.133 5.70133 71.7883 5.06 73.9723 5.06C76.139 5.06 77.7857 5.70133 78.9123 6.984C80.039 8.26667 80.6023 10.0347 80.6023 12.288ZM77.4043 12.288C77.4043 10.8667 77.127 9.80067 76.5723 9.09C76.0177 8.362 75.151 7.998 73.9723 7.998C72.7937 7.998 71.927 8.362 71.3723 9.09C70.8177 9.80067 70.5403 10.8667 70.5403 12.288V16.006C70.5403 17.4273 70.8177 18.502 71.3723 19.23C71.927 19.958 72.7937 20.322 73.9723 20.322C75.151 20.322 76.0177 19.958 76.5723 19.23C77.127 18.502 77.4043 17.4273 77.4043 16.006V12.288ZM82.6212 8.31V5.32H95.6212V8.31H90.6812V23H87.5612V8.31H82.6212ZM110.919 12.288V16.006C110.919 18.2593 110.355 20.036 109.229 21.336C108.102 22.6187 106.455 23.26 104.289 23.26C102.105 23.26 100.449 22.6187 99.3228 21.336C98.2134 20.036 97.6588 18.2593 97.6588 16.006V12.288C97.6588 10.0347 98.2134 8.26667 99.3228 6.984C100.449 5.70133 102.105 5.06 104.289 5.06C106.455 5.06 108.102 5.70133 109.229 6.984C110.355 8.26667 110.919 10.0347 110.919 12.288ZM107.721 12.288C107.721 10.8667 107.443 9.80067 106.889 9.09C106.334 8.362 105.467 7.998 104.289 7.998C103.11 7.998 102.243 8.362 101.689 9.09C101.134 9.80067 100.857 10.8667 100.857 12.288V16.006C100.857 17.4273 101.134 18.502 101.689 19.23C102.243 19.958 103.11 20.322 104.289 20.322C105.467 20.322 106.334 19.958 106.889 19.23C107.443 18.502 107.721 17.4273 107.721 16.006V12.288ZM124.092 16.214H118.164V23H115.044V5.32H124.872V8.31H118.164V13.224H124.092V16.214ZM139.793 5.32L134.385 15.902V23H131.265V15.954L125.805 5.32H129.133L132.955 12.86L136.569 5.32H139.793Z" fill="url(#paint11_linear_1_100)"/>
</g>
<defs>
<filter id="filter0_d_1_100" x="31.0008" y="1.27399" width="0.99596" height="1.00852" filterUnits="userSpaceOnUse" color-interpolation-filters="sRGB">
<feFlood flood-opacity="0" result="BackgroundImageFix"/>
<feColorMatrix in="SourceAlpha" type="matrix" values="0 0 0 0 0 0 0 0 0 0 0 0 0 0 0 0 0 0 127 0" result="hardAlpha"/>
<feOffset/>
<feGaussianBlur stdDeviation="0.170743"/>
<feComposite in2="hardAlpha" operator="out"/>
<feColorMatrix type="matrix" values="0 0 0 0 0.592157 0 0 0 0 0.392157 0 0 0 0 1 0 0 0 1 0"/>
<feBlend mode="normal" in2="BackgroundImageFix" result="effect1_dropShadow_1_100"/>
<feBlend mode="normal" in="SourceGraphic" in2="effect1_dropShadow_1_100" result="shape"/>
</filter>
<filter id="filter1_d_1_100" x="4.39242" y="4.30758" width="2.58387" height="2.61635" filterUnits="userSpaceOnUse" color-interpolation-filters="sRGB">
<feFlood flood-opacity="0" result="BackgroundImageFix"/>
<feColorMatrix in="SourceAlpha" type="matrix" values="0 0 0 0 0 0 0 0 0 0 0 0 0 0 0 0 0 0 127 0" result="hardAlpha"/>
<feOffset/>
<feGaussianBlur stdDeviation="0.442949"/>
<feComposite in2="hardAlpha" operator="out"/>
<feColorMatrix type="matrix" values="0 0 0 0 0.592157 0 0 0 0 0.392157 0 0 0 0 1 0 0 0 1 0"/>
<feBlend mode="normal" in2="BackgroundImageFix" result="effect1_dropShadow_1_100"/>
<feBlend mode="normal" in="SourceGraphic" in2="effect1_dropShadow_1_100" result="shape"/>
</filter>
<filter id="filter2_d_1_100" x="0.210293" y="16.6759" width="2.58387" height="2.61629" filterUnits="userSpaceOnUse" color-interpolation-filters="sRGB">
<feFlood flood-opacity="0" result="BackgroundImageFix"/>
<feColorMatrix in="SourceAlpha" type="matrix" values="0 0 0 0 0 0 0 0 0 0 0 0 0 0 0 0 0 0 127 0" result="hardAlpha"/>
<feOffset/>
<feGaussianBlur stdDeviation="0.442949"/>
<feComposite in2="hardAlpha" operator="out"/>
<feColorMatrix type="matrix" values="0 0 0 0 0.592157 0 0 0 0 0.392157 0 0 0 0 1 0 0 0 1 0"/>
<feBlend mode="normal" in2="BackgroundImageFix" result="effect1_dropShadow_1_100"/>
<feBlend mode="normal" in="SourceGraphic" in2="effect1_dropShadow_1_100" result="shape"/>
</filter>
<filter id="filter3_d_1_100" x="24.2508" y="20.0711" width="2.5839" height="2.61639" filterUnits="userSpaceOnUse" color-interpolation-filters="sRGB">
<feFlood flood-opacity="0" result="BackgroundImageFix"/>
<feColorMatrix in="SourceAlpha" type="matrix" values="0 0 0 0 0 0 0 0 0 0 0 0 0 0 0 0 0 0 127 0" result="hardAlpha"/>
<feOffset/>
<feGaussianBlur stdDeviation="0.442949"/>
<feComposite in2="hardAlpha" operator="out"/>
<feColorMatrix type="matrix" values="0 0 0 0 0.592157 0 0 0 0 0.392157 0 0 0 0 1 0 0 0 1 0"/>
<feBlend mode="normal" in2="BackgroundImageFix" result="effect1_dropShadow_1_100"/>
<feBlend mode="normal" in="SourceGraphic" in2="effect1_dropShadow_1_100" result="shape"/>
</filter>
<filter id="filter4_d_1_100" x="6.02961" y="13.9844" width="0.995991" height="1.00857" filterUnits="userSpaceOnUse" color-interpolation-filters="sRGB">
<feFlood flood-opacity="0" result="BackgroundImageFix"/>
<feColorMatrix in="SourceAlpha" type="matrix" values="0 0 0 0 0 0 0 0 0 0 0 0 0 0 0 0 0 0 127 0" result="hardAlpha"/>
<feOffset/>
<feGaussianBlur stdDeviation="0.170743"/>
<feComposite in2="hardAlpha" operator="out"/>
<feColorMatrix type="matrix" values="0 0 0 0 0.592157 0 0 0 0 0.392157 0 0 0 0 1 0 0 0 1 0"/>
<feBlend mode="normal" in2="BackgroundImageFix" result="effect1_dropShadow_1_100"/>
<feBlend mode="normal" in="SourceGraphic" in2="effect1_dropShadow_1_100" result="shape"/>
</filter>
<filter id="filter5_d_1_100" x="11.7417" y="0.463378" width="1.56516" height="1.58483" filterUnits="userSpaceOnUse" color-interpolation-filters="sRGB">
<feFlood flood-opacity="0" result="BackgroundImageFix"/>
<feColorMatrix in="SourceAlpha" type="matrix" values="0 0 0 0 0 0 0 0 0 0 0 0 0 0 0 0 0 0 127 0" result="hardAlpha"/>
<feOffset/>
<feGaussianBlur stdDeviation="0.268311"/>
<feComposite in2="hardAlpha" operator="out"/>
<feColorMatrix type="matrix" values="0 0 0 0 0.592157 0 0 0 0 0.392157 0 0 0 0 1 0 0 0 1 0"/>
<feBlend mode="normal" in2="BackgroundImageFix" result="effect1_dropShadow_1_100"/>
<feBlend mode="normal" in="SourceGraphic" in2="effect1_dropShadow_1_100" result="shape"/>
</filter>
<filter id="filter6_d_1_100" x="0.732341" y="9.55253" width="4.62037" height="4.71871" filterUnits="userSpaceOnUse" color-interpolation-filters="sRGB">
<feFlood flood-opacity="0" result="BackgroundImageFix"/>
<feColorMatrix in="SourceAlpha" type="matrix" values="0 0 0 0 0 0 0 0 0 0 0 0 0 0 0 0 0 0 127 0" result="hardAlpha"/>
<feOffset dy="0.281606"/>
<feGaussianBlur stdDeviation="0.540812"/>
<feComposite in2="hardAlpha" operator="out"/>
<feColorMatrix type="matrix" values="0 0 0 0 0.220722 0 0 0 0 0.210451 0 0 0 0 0.241667 0 0 0 0.6 0"/>
<feBlend mode="normal" in2="BackgroundImageFix" result="effect1_dropShadow_1_100"/>
<feBlend mode="normal" in="SourceGraphic" in2="effect1_dropShadow_1_100" result="shape"/>
</filter>
<filter id="filter7_f_1_100" x="0.214238" y="12.6334" width="27.048" height="11.4952" filterUnits="userSpaceOnUse" color-interpolation-filters="sRGB">
<feFlood flood-opacity="0" result="BackgroundImageFix"/>
<feBlend mode="normal" in="SourceGraphic" in2="BackgroundImageFix" result="shape"/>
<feGaussianBlur stdDeviation="0.127195" result="effect1_foregroundBlur_1_100"/>
</filter>
<filter id="filter8_d_1_100" x="20.2885" y="2.26113" width="7.65249" height="7.78806" filterUnits="userSpaceOnUse" color-interpolation-filters="sRGB">
<feFlood flood-opacity="0" result="BackgroundImageFix"/>
<feColorMatrix in="SourceAlpha" type="matrix" values="0 0 0 0 0 0 0 0 0 0 0 0 0 0 0 0 0 0 127 0" result="hardAlpha"/>
<feOffset dy="0.554677"/>
<feGaussianBlur stdDeviation="1.06523"/>
<feComposite in2="hardAlpha" operator="out"/>
<feColorMatrix type="matrix" values="0 0 0 0 0.296824 0 0 0 0 0.244184 0 0 0 0 0.404167 0 0 0 0.6 0"/>
<feBlend mode="normal" in2="BackgroundImageFix" result="effect1_dropShadow_1_100"/>
<feBlend mode="normal" in="SourceGraphic" in2="effect1_dropShadow_1_100" result="shape"/>
</filter>
<linearGradient id="paint0_linear_1_100" x1="31.3515" y1="1.76142" x2="31.6627" y2="1.7677" gradientUnits="userSpaceOnUse">
<stop stop-color="#26A4FF"/>
<stop offset="1" stop-color="#0D9AFF"/>
</linearGradient>
<linearGradient id="paint1_linear_1_100" x1="5.30238" y1="5.57208" x2="6.10973" y2="5.58843" gradientUnits="userSpaceOnUse">
<stop stop-color="#26A4FF"/>
<stop offset="1" stop-color="#0D9AFF"/>
</linearGradient>
<linearGradient id="paint2_linear_1_100" x1="1.12025" y1="17.9404" x2="1.92761" y2="17.9566" gradientUnits="userSpaceOnUse">
<stop stop-color="#26A4FF"/>
<stop offset="1" stop-color="#0D9AFF"/>
</linearGradient>
<linearGradient id="paint3_linear_1_100" x1="25.1609" y1="21.3356" x2="25.9682" y2="21.352" gradientUnits="userSpaceOnUse">
<stop stop-color="#26A4FF"/>
<stop offset="1" stop-color="#0D9AFF"/>
</linearGradient>
<linearGradient id="paint4_linear_1_100" x1="6.38037" y1="14.472" x2="6.69158" y2="14.4782" gradientUnits="userSpaceOnUse">
<stop stop-color="#26A4FF"/>
<stop offset="1" stop-color="#0D9AFF"/>
</linearGradient>
<linearGradient id="paint5_linear_1_100" x1="12.2929" y1="1.22933" x2="12.7819" y2="1.23921" gradientUnits="userSpaceOnUse">
<stop stop-color="#26A4FF"/>
<stop offset="1" stop-color="#0D9AFF"/>
</linearGradient>
<linearGradient id="paint6_linear_1_100" x1="4.17747" y1="11.3173" x2="1.74065" y2="11.7212" gradientUnits="userSpaceOnUse">
<stop stop-color="#26A4FF"/>
<stop offset="1" stop-color="#0D9AFF"/>
</linearGradient>
<linearGradient id="paint7_linear_1_100" x1="1.27832" y1="2.04004" x2="26.2191" y2="26.0216" gradientUnits="userSpaceOnUse">
<stop stop-color="#868CFF"/>
<stop offset="1" stop-color="#4318FF"/>
</linearGradient>
<linearGradient id="paint8_linear_1_100" x1="1.18252" y1="24.8028" x2="0.114126" y2="21.7888" gradientUnits="userSpaceOnUse">
<stop stop-color="#3F5FFF"/>
<stop offset="1" stop-color="#3F5FFF" stop-opacity="0"/>
</linearGradient>
<linearGradient id="paint9_linear_1_100" x1="1.18252" y1="24.8025" x2="0.114125" y2="21.7886" gradientUnits="userSpaceOnUse">
<stop stop-color="#1DA0FF"/>
<stop offset="1" stop-color="#199FFF" stop-opacity="0.13"/>
</linearGradient>
<linearGradient id="paint10_linear_1_100" x1="25.733" y1="5.65576" x2="22.3517" y2="5.25926" gradientUnits="userSpaceOnUse">
<stop stop-color="#26A4FF"/>
<stop offset="1" stop-color="#0D9AFF"/>
</linearGradient>
<linearGradient id="paint11_linear_1_100" x1="89.7879" y1="-2" x2="90.2121" y2="27" gradientUnits="userSpaceOnUse">
<stop stop-color="#6956FF"/>
<stop offset="1" stop-color="#3B2F99"/>
</linearGradient>
<clipPath id="clip0_1_100">
<rect width="168" height="27" fill="white"/>
</clipPath>
</defs>
</svg>
